<svg width="142" height="41" viewBox="0 0 142 41" fill="none" xmlns="http://www.w3.org/2000/svg">
<path d="M61.248 3.712L58.384 10.72C57.9573 11.6587 57.5573 12.3627 57.184 12.832C56.8213 13.2907 56.3893 13.616 55.888 13.808C55.3867 14 54.7093 14.112 53.856 14.144L53.696 14.128C53.5147 13.584 53.392 13.0133 53.328 12.416L53.408 12.224C54.1653 12.1493 54.736 12.064 55.12 11.968C55.504 11.8613 55.8133 11.7067 56.048 11.504L52.192 3.712L54.512 3.696L54.912 4.816L56.928 9.344H57.12L58.816 4.704L59.12 3.712H61.248ZM68.4148 10.72L68.4948 14H66.3828L66.4788 11.088L65.0868 11.072L63.7908 11.104L63.8708 14H61.7428L61.8548 10.928L61.7747 6.56H63.8708L63.8068 9.504L65.1828 9.52H66.4628L66.4148 6.56H68.4948L68.4148 10.72ZM70.5891 10.928L70.4771 6.608L72.5891 6.512L72.5091 11.12H72.6371L75.1011 6.56H77.2131L77.1011 10.672L77.2131 14H75.1011L75.1971 11.072V9.312H75.0851L72.5411 14H70.4771L70.5891 10.928ZM79.2446 10.928L79.1806 6.704L81.2766 6.528L81.1966 10.72L81.2606 14H79.1486L79.2446 10.928ZM83.3246 9.92C83.922 10.8587 84.7913 12.1013 85.9326 13.648V13.872C85.5593 13.9573 85.1593 14.0213 84.7326 14.064C84.3166 14.1173 84.0606 14.1493 83.9646 14.16L83.7406 14.064C82.7806 12.6987 81.9646 11.3813 81.2926 10.112V9.968L83.1806 7.328L83.5646 6.56H85.7726L83.3246 9.92ZM89.6841 6.416C90.5055 6.416 91.1455 6.60267 91.6041 6.976C92.0735 7.33867 92.3081 7.85067 92.3081 8.512C92.3081 8.704 92.2761 9.312 92.2121 10.336C92.2015 10.6347 92.1855 10.944 92.1641 11.264C92.1428 11.5733 92.1321 11.84 92.1321 12.064C92.1321 12.2453 92.1588 12.3733 92.2121 12.448C92.2655 12.512 92.3615 12.544 92.5001 12.544C92.6068 12.544 92.7455 12.5227 92.9161 12.48L93.0761 12.608L92.8841 13.728C92.5428 13.952 92.1535 14.0853 91.7161 14.128C91.3961 14.096 91.1295 13.984 90.9161 13.792C90.7028 13.5893 90.5588 13.312 90.4841 12.96H90.3721C89.8388 13.5253 89.2895 13.92 88.7241 14.144C87.9561 14.1333 87.3535 13.9307 86.9161 13.536C86.4788 13.1413 86.2601 12.6027 86.2601 11.92C86.2601 11.3867 86.3935 10.9707 86.6601 10.672C86.9375 10.3627 87.3535 10.1547 87.9081 10.048L90.3561 9.584V8.928C90.3561 8.23467 90.0148 7.888 89.3321 7.888C89.0015 7.888 88.6495 7.96267 88.2761 8.112C87.9135 8.26133 87.5028 8.496 87.0441 8.816L86.8841 8.72L86.6441 7.312C87.1028 7.024 87.5935 6.80533 88.1161 6.656C88.6388 6.496 89.1615 6.416 89.6841 6.416ZM88.6441 11.024C88.4735 11.0667 88.3455 11.1413 88.2601 11.248C88.1855 11.344 88.1481 11.4933 88.1481 11.696C88.1481 11.9733 88.2228 12.192 88.3721 12.352C88.5215 12.5013 88.7295 12.576 88.9961 12.576C89.4121 12.576 89.8495 12.3307 90.3081 11.84L90.3401 10.656L88.6441 11.024ZM100.363 10.72L100.443 14H98.3309L98.4269 10.928L98.3789 7.968H97.0349L96.9869 8.384C96.8055 9.89867 96.6082 11.056 96.3949 11.856C96.1922 12.656 95.9362 13.232 95.6269 13.584C95.3175 13.9253 94.9015 14.1227 94.3789 14.176H93.8989L93.5949 12.544C93.9789 12.4267 94.2775 12.224 94.4909 11.936C94.7042 11.648 94.8802 11.2107 95.0189 10.624C95.1575 10.0267 95.2855 9.16267 95.4029 8.032L95.5629 6.592L95.5469 6.56H100.459L100.363 10.72ZM106.095 9.28C106.937 9.28 107.577 9.456 108.015 9.808C108.463 10.1493 108.687 10.6507 108.687 11.312C108.687 12.1547 108.372 12.816 107.743 13.296C107.113 13.7653 106.249 14 105.151 14H102.415L102.527 10.928L102.447 6.56H104.543L104.479 9.28H106.095ZM105.599 12.72C105.94 12.656 106.201 12.5227 106.383 12.32C106.575 12.1067 106.671 11.8507 106.671 11.552C106.671 11.232 106.564 10.9813 106.351 10.8C106.148 10.608 105.865 10.5173 105.503 10.528L104.447 10.544V10.72L104.511 12.672L105.599 12.72ZM116.399 10.72L116.479 14H114.367L114.463 11.088L113.071 11.072L111.775 11.104L111.855 14H109.727L109.839 10.928L109.759 6.56H111.855L111.791 9.504L113.167 9.52H114.447L114.399 6.56H116.479L116.399 10.72ZM127.278 10.72L127.374 14H125.246L125.358 10.928L125.278 6.704L127.374 6.528L127.278 10.72ZM122.046 9.28C122.835 9.28 123.438 9.456 123.854 9.808C124.28 10.1493 124.494 10.6507 124.494 11.312C124.494 12.1547 124.195 12.816 123.598 13.296C123 13.7653 122.174 14 121.118 14H118.462L118.574 10.928L118.493 6.56H120.59L120.526 9.28H122.046ZM121.566 12.72C121.854 12.656 122.078 12.5227 122.238 12.32C122.398 12.1067 122.478 11.8507 122.478 11.552C122.478 11.232 122.387 10.9813 122.206 10.8C122.024 10.608 121.774 10.5173 121.454 10.528L120.494 10.544V10.72L120.558 12.672L121.566 12.72ZM129.449 10.928L129.337 6.608L131.449 6.512L131.369 11.12H131.497L133.961 6.56H136.073L135.961 10.672L136.073 14H133.961L134.057 11.072V9.312H133.945L131.401 14H129.337L129.449 10.928ZM135.353 3.904C135.139 4.39467 134.793 4.77867 134.313 5.056C133.843 5.33333 133.294 5.472 132.665 5.472C132.046 5.472 131.513 5.33867 131.065 5.072C130.617 4.80533 130.275 4.416 130.041 3.904L131.113 3.168H131.337C131.475 3.552 131.646 3.824 131.849 3.984C132.062 4.144 132.355 4.224 132.729 4.224C133.091 4.224 133.369 4.14933 133.561 4C133.763 3.84 133.934 3.56267 134.073 3.168H134.281L135.353 3.904ZM60.176 30.48V33.84L58.816 33.952L58.56 32H53.728L53.488 33.84L52.128 33.952V30.48H52.688C53.008 30.288 53.2587 30.0427 53.44 29.744C53.6213 29.4347 53.7653 29.0027 53.872 28.448C53.9893 27.8933 54.1067 27.088 54.224 26.032L54.384 24.576H59.28L59.184 28.72L59.232 30.48H60.176ZM57.296 28.928L57.248 25.952H55.872L55.824 26.368C55.696 27.552 55.5413 28.4533 55.36 29.072C55.1787 29.6907 54.928 30.16 54.608 30.48H57.248L57.296 28.928ZM61.6985 28.928L61.5865 24.608L63.6985 24.512L63.6185 29.12H63.7465L66.2105 24.56H68.3225L68.2105 28.672L68.3225 32H66.2105L66.3065 29.072V27.312H66.1945L63.6505 32H61.5865L61.6985 28.928ZM74.0303 28.16C74.5316 28.2987 74.8996 28.5067 75.1343 28.784C75.3796 29.0613 75.5023 29.424 75.5023 29.872C75.5023 30.5867 75.2089 31.1413 74.6223 31.536C74.0463 31.9307 73.2303 32.128 72.1743 32.128C71.7369 32.128 71.3156 32.0907 70.9103 32.016C70.5156 31.952 70.1796 31.856 69.9023 31.728L70.2383 30.192L70.3823 30.128C70.6169 30.256 70.8943 30.3573 71.2143 30.432C71.5343 30.5067 71.8489 30.544 72.1583 30.544C72.5956 30.544 72.9423 30.4693 73.1983 30.32C73.4543 30.1707 73.5823 29.9627 73.5823 29.696C73.5823 29.3227 73.3476 29.072 72.8783 28.944H71.1023L70.9903 28.816L71.1183 27.52L72.7343 27.536C72.9049 27.4613 73.0383 27.3547 73.1343 27.216C73.2303 27.0667 73.2783 26.9013 73.2783 26.72C73.2783 26.4853 73.1876 26.32 73.0063 26.224C72.8356 26.1173 72.5529 26.064 72.1583 26.064C71.6036 26.064 70.9689 26.176 70.2543 26.4L70.0783 26.32L70.2223 24.784C70.8409 24.5707 71.5076 24.464 72.2223 24.464C73.1716 24.464 73.9076 24.6347 74.4303 24.976C74.9529 25.3173 75.2143 25.7973 75.2143 26.416C75.2143 26.8107 75.1076 27.1573 74.8943 27.456C74.6916 27.7547 74.4036 27.9893 74.0303 28.16ZM79.8248 24.416C80.6461 24.416 81.2861 24.6027 81.7448 24.976C82.2141 25.3387 82.4488 25.8507 82.4488 26.512C82.4488 26.704 82.4168 27.312 82.3528 28.336C82.3421 28.6347 82.3261 28.944 82.3048 29.264C82.2834 29.5733 82.2728 29.84 82.2728 30.064C82.2728 30.2453 82.2994 30.3733 82.3528 30.448C82.4061 30.512 82.5021 30.544 82.6408 30.544C82.7474 30.544 82.8861 30.5227 83.0568 30.48L83.2168 30.608L83.0248 31.728C82.6834 31.952 82.2941 32.0853 81.8568 32.128C81.5368 32.096 81.2701 31.984 81.0568 31.792C80.8434 31.5893 80.6994 31.312 80.6248 30.96H80.5128C79.9794 31.5253 79.4301 31.92 78.8648 32.144C78.0968 32.1333 77.4941 31.9307 77.0568 31.536C76.6194 31.1413 76.4008 30.6027 76.4008 29.92C76.4008 29.3867 76.5341 28.9707 76.8008 28.672C77.0781 28.3627 77.4941 28.1547 78.0488 28.048L80.4968 27.584V26.928C80.4968 26.2347 80.1554 25.888 79.4728 25.888C79.1421 25.888 78.7901 25.9627 78.4168 26.112C78.0541 26.2613 77.6434 26.496 77.1848 26.816L77.0247 26.72L76.7848 25.312C77.2434 25.024 77.7341 24.8053 78.2568 24.656C78.7794 24.496 79.3021 24.416 79.8248 24.416ZM78.7848 29.024C78.6141 29.0667 78.4861 29.1413 78.4008 29.248C78.3261 29.344 78.2888 29.4933 78.2888 29.696C78.2888 29.9733 78.3634 30.192 78.5128 30.352C78.6621 30.5013 78.8701 30.576 79.1368 30.576C79.5528 30.576 79.9901 30.3307 80.4488 29.84L80.4808 28.656L78.7848 29.024ZM84.5891 28.928L84.4771 24.608L86.5891 24.512L86.5091 29.12H86.6371L89.1011 24.56H91.2131L91.1011 28.672L91.2131 32H89.1011L89.1971 29.072V27.312H89.0851L86.5411 32H84.4771L84.5891 28.928ZM90.4931 21.904C90.2798 22.3947 89.9331 22.7787 89.4531 23.056C88.9838 23.3333 88.4345 23.472 87.8051 23.472C87.1865 23.472 86.6531 23.3387 86.2051 23.072C85.7571 22.8053 85.4158 22.416 85.1811 21.904L86.2531 21.168H86.4771C86.6158 21.552 86.7865 21.824 86.9891 21.984C87.2025 22.144 87.4958 22.224 87.8691 22.224C88.2318 22.224 88.5091 22.1493 88.7011 22C88.9038 21.84 89.0745 21.5627 89.2131 21.168H89.4211L90.4931 21.904ZM99.8366 28.72L99.9166 32H97.8046L97.9006 29.088L96.5086 29.072L95.2126 29.104L95.2926 32H93.1646L93.2766 28.928L93.1966 24.56H95.2926L95.2286 27.504L96.6046 27.52H97.8846L97.8366 24.56H99.9166L99.8366 28.72Z" fill="white"/>
<path d="M37.5485 3.45152C37.3352 3.23814 37.0379 3.13037 36.7376 3.15814C36.6123 3.16952 33.6209 3.45402 29.5183 4.83108C16.1663 8.94322 7.32974 21.8899 3.22065 31.2558C2.962 31.8743 3.48458 32.7021 4.26676 32.6337L8.80535 32.1922L8.36386 36.7304C8.31549 37.3828 8.94883 38.0699 9.74184 37.7764C26.0466 30.3472 35.9919 18.976 37.8419 4.26228C37.8694 3.96186 37.7619 3.66476 37.5485 3.45152ZM24.4105 25.7881C22.6089 27.4277 20.8329 28.8372 19.1913 30.0245V12.7211C20.9122 11.3108 22.6957 10.1677 24.4105 9.24486V25.7881ZM14.4936 33.0991C12.8802 34.0471 11.5183 34.7389 10.5551 35.1956L10.9478 31.1597C11.006 30.6346 10.5202 29.9703 9.83797 30.05L5.8034 30.4424C7.16641 27.5507 10.8373 20.8176 17.159 14.5514V31.4322C16.1849 32.0781 15.286 32.6336 14.4936 33.0991ZM34.2232 10.8908C33.0298 14.4275 30.7123 19.5335 26.4428 23.8442V8.2325C29.2239 6.88932 33.4729 5.68533 35.6337 5.36608C35.4266 6.57955 35.0109 8.55616 34.2232 10.8908Z" fill="white"/>
</svg>
