<svg width="142" height="41" viewBox="0 0 142 41" fill="none" xmlns="http://www.w3.org/2000/svg">
<path d="M57.68 7.792C58.7467 7.792 59.5573 8.02667 60.112 8.496C60.6773 8.96533 60.96 9.648 60.96 10.544C60.96 11.632 60.56 12.48 59.76 13.088C58.9707 13.696 57.8667 14 56.448 14H53.36L53.472 10.944L53.36 3.696H60.432L60.544 3.872L60.416 5.456L57.824 5.392H55.52L55.488 7.792H57.68ZM57.04 12.528C57.5733 12.4427 57.9787 12.256 58.256 11.968C58.544 11.6693 58.688 11.2853 58.688 10.816C58.688 10.3253 58.5387 9.952 58.24 9.696C57.952 9.42933 57.5307 9.30133 56.976 9.312L55.456 9.344L55.44 10.736L55.488 12.448L57.04 12.528ZM71.3244 10.72L71.4204 14H69.2924L69.4044 10.928L69.3244 6.704L71.4204 6.528L71.3244 10.72ZM66.0924 9.28C66.8817 9.28 67.4844 9.456 67.9004 9.808C68.327 10.1493 68.5404 10.6507 68.5404 11.312C68.5404 12.1547 68.2417 12.816 67.6444 13.296C67.047 13.7653 66.2204 14 65.1644 14H62.5084L62.6204 10.928L62.5404 6.56H64.6364L64.5724 9.28H66.0924ZM65.6124 12.72C65.9004 12.656 66.1244 12.5227 66.2844 12.32C66.4444 12.1067 66.5244 11.8507 66.5244 11.552C66.5244 11.232 66.4337 10.9813 66.2524 10.8C66.071 10.608 65.8204 10.5173 65.5004 10.528L64.5404 10.544V10.72L64.6044 12.672L65.6124 12.72ZM76.4531 6.416C76.8051 6.416 77.1518 6.45333 77.4931 6.528C77.8451 6.592 78.1545 6.688 78.4211 6.816L78.0691 8.512L77.8931 8.592C77.3491 8.29333 76.8638 8.144 76.4371 8.144C75.9465 8.144 75.5678 8.32 75.3011 8.672C75.0345 9.024 74.9011 9.52533 74.9011 10.176C74.9011 10.9227 75.0451 11.4933 75.3331 11.888C75.6211 12.2827 76.0318 12.48 76.5651 12.48C77.0451 12.48 77.5785 12.3467 78.1651 12.08L78.3251 12.208L78.1171 13.856C77.4771 14.0587 76.8211 14.16 76.1491 14.16C75.1251 14.16 74.3251 13.8293 73.7491 13.168C73.1731 12.496 72.8851 11.5627 72.8851 10.368C72.8851 9.13067 73.1998 8.16533 73.8291 7.472C74.4585 6.768 75.3331 6.416 76.4531 6.416ZM85.1946 6.704L85.0666 8.08L83.5946 8.032H83.0506L82.9866 10.72L83.0826 14H80.9706L81.0666 10.928L81.0186 8.032H80.4426L78.9706 8.08L78.8586 7.936L78.9546 6.56H85.0666L85.1946 6.704ZM90.1006 6.464C91.0286 6.464 91.7433 6.77867 92.2446 7.408C92.746 8.03733 92.9966 8.928 92.9966 10.08C92.9966 11.3813 92.6713 12.3893 92.0206 13.104C91.3806 13.808 90.474 14.16 89.3006 14.16C88.9593 14.16 88.602 14.128 88.2286 14.064L88.2766 16.96H86.1646L86.2766 10.928L86.1806 6.704L88.2126 6.528L88.1966 7.616H88.3086C88.6073 7.328 88.8953 7.09867 89.1726 6.928C89.45 6.74667 89.7593 6.592 90.1006 6.464ZM89.3166 12.768C89.8713 12.768 90.2926 12.5707 90.5806 12.176C90.8686 11.7813 91.0126 11.2 91.0126 10.432C91.0126 9.68533 90.89 9.12533 90.6446 8.752C90.41 8.368 90.058 8.176 89.5886 8.176C89.13 8.176 88.666 8.40533 88.1966 8.864L88.1806 10.72L88.2126 12.528C88.5966 12.688 88.9646 12.768 89.3166 12.768ZM97.3091 6.416C98.1305 6.416 98.7705 6.60267 99.2291 6.976C99.6985 7.33867 99.9331 7.85067 99.9331 8.512C99.9331 8.704 99.9011 9.312 99.8371 10.336C99.8265 10.6347 99.8105 10.944 99.7891 11.264C99.7678 11.5733 99.7571 11.84 99.7571 12.064C99.7571 12.2453 99.7838 12.3733 99.8371 12.448C99.8905 12.512 99.9865 12.544 100.125 12.544C100.232 12.544 100.37 12.5227 100.541 12.48L100.701 12.608L100.509 13.728C100.168 13.952 99.7785 14.0853 99.3411 14.128C99.0211 14.096 98.7545 13.984 98.5411 13.792C98.3278 13.5893 98.1838 13.312 98.1091 12.96H97.9971C97.4638 13.5253 96.9145 13.92 96.3491 14.144C95.5811 14.1333 94.9785 13.9307 94.5411 13.536C94.1038 13.1413 93.8851 12.6027 93.8851 11.92C93.8851 11.3867 94.0185 10.9707 94.2851 10.672C94.5625 10.3627 94.9785 10.1547 95.5331 10.048L97.9811 9.584V8.928C97.9811 8.23467 97.6398 7.888 96.9571 7.888C96.6265 7.888 96.2745 7.96267 95.9011 8.112C95.5385 8.26133 95.1278 8.496 94.6691 8.816L94.5091 8.72L94.2691 7.312C94.7278 7.024 95.2185 6.80533 95.7411 6.656C96.2638 6.496 96.7865 6.416 97.3091 6.416ZM96.2691 11.024C96.0985 11.0667 95.9705 11.1413 95.8851 11.248C95.8105 11.344 95.7731 11.4933 95.7731 11.696C95.7731 11.9733 95.8478 12.192 95.9971 12.352C96.1465 12.5013 96.3545 12.576 96.6211 12.576C97.0371 12.576 97.4745 12.3307 97.9331 11.84L97.9651 10.656L96.2691 11.024ZM107.655 10.72L107.735 14H105.751L105.815 11.504H104.711C104.349 12.2613 103.906 13.0827 103.383 13.968L103.207 14.112C102.397 14.08 101.773 13.9627 101.335 13.76L101.303 13.552C102.007 12.7413 102.637 11.9467 103.191 11.168C102.69 10.9547 102.327 10.6827 102.103 10.352C101.879 10.0107 101.767 9.568 101.767 9.024C101.767 8.544 101.89 8.11733 102.135 7.744C102.381 7.37067 102.727 7.07733 103.175 6.864C103.623 6.65067 104.13 6.544 104.695 6.544L107.751 6.56L107.655 10.72ZM104.903 7.856C104.53 7.86667 104.242 7.97333 104.039 8.176C103.847 8.368 103.751 8.64533 103.751 9.008C103.751 9.712 104.103 10.1493 104.807 10.32L105.831 10.256V7.904L104.903 7.856ZM60.176 31.48V34.84L58.816 34.952L58.56 33H53.728L53.488 34.84L52.128 34.952V31.48H52.688C53.008 31.288 53.2587 31.0427 53.44 30.744C53.6213 30.4347 53.7653 30.0027 53.872 29.448C53.9893 28.8933 54.1067 28.088 54.224 27.032L54.384 25.576H59.28L59.184 29.72L59.232 31.48H60.176ZM57.296 29.928L57.248 26.952H55.872L55.824 27.368C55.696 28.552 55.5413 29.4533 55.36 30.072C55.1787 30.6907 54.928 31.16 54.608 31.48H57.248L57.296 29.928ZM64.7043 25.416C65.7923 25.416 66.6243 25.736 67.2003 26.376C67.7763 27.016 68.0643 27.9387 68.0643 29.144C68.0643 30.4453 67.7549 31.4427 67.1363 32.136C66.5176 32.8187 65.6269 33.16 64.4643 33.16C63.3763 33.16 62.5443 32.84 61.9683 32.2C61.3923 31.56 61.1043 30.6373 61.1043 29.432C61.1043 28.1307 61.4136 27.1387 62.0323 26.456C62.6509 25.7627 63.5416 25.416 64.7043 25.416ZM64.5603 26.856C64.0483 26.856 63.6749 27.0267 63.4403 27.368C63.2163 27.7093 63.1043 28.2587 63.1043 29.016C63.1043 29.9973 63.2216 30.696 63.4563 31.112C63.6909 31.528 64.0749 31.736 64.6083 31.736C65.1203 31.736 65.4883 31.5707 65.7123 31.24C65.9469 30.8987 66.0643 30.344 66.0643 29.576C66.0643 28.6053 65.9416 27.912 65.6963 27.496C65.4616 27.0693 65.0829 26.856 64.5603 26.856ZM72.5156 25.416C72.8676 25.416 73.2143 25.4533 73.5556 25.528C73.9076 25.592 74.217 25.688 74.4836 25.816L74.1316 27.512L73.9556 27.592C73.4116 27.2933 72.9263 27.144 72.4996 27.144C72.009 27.144 71.6303 27.32 71.3636 27.672C71.097 28.024 70.9636 28.5253 70.9636 29.176C70.9636 29.9227 71.1076 30.4933 71.3956 30.888C71.6836 31.2827 72.0943 31.48 72.6276 31.48C73.1076 31.48 73.641 31.3467 74.2276 31.08L74.3876 31.208L74.1796 32.856C73.5396 33.0587 72.8836 33.16 72.2116 33.16C71.1876 33.16 70.3876 32.8293 69.8116 32.168C69.2356 31.496 68.9476 30.5627 68.9476 29.368C68.9476 28.1307 69.2623 27.1653 69.8916 26.472C70.521 25.768 71.3956 25.416 72.5156 25.416ZM81.2571 25.704L81.1291 27.08L79.6571 27.032H79.1131L79.0491 29.72L79.1451 33H77.0331L77.1291 29.928L77.0811 27.032H76.5051L75.0331 27.08L74.9211 26.936L75.0171 25.56H81.1291L81.2571 25.704ZM85.0591 25.416C85.8805 25.416 86.5205 25.6027 86.9791 25.976C87.4485 26.3387 87.6831 26.8507 87.6831 27.512C87.6831 27.704 87.6511 28.312 87.5871 29.336C87.5765 29.6347 87.5605 29.944 87.5391 30.264C87.5178 30.5733 87.5071 30.84 87.5071 31.064C87.5071 31.2453 87.5338 31.3733 87.5871 31.448C87.6405 31.512 87.7365 31.544 87.8751 31.544C87.9818 31.544 88.1205 31.5227 88.2911 31.48L88.4511 31.608L88.2591 32.728C87.9178 32.952 87.5285 33.0853 87.0911 33.128C86.7711 33.096 86.5045 32.984 86.2911 32.792C86.0778 32.5893 85.9338 32.312 85.8591 31.96H85.7471C85.2138 32.5253 84.6645 32.92 84.0991 33.144C83.3311 33.1333 82.7285 32.9307 82.2911 32.536C81.8538 32.1413 81.6351 31.6027 81.6351 30.92C81.6351 30.3867 81.7685 29.9707 82.0351 29.672C82.3125 29.3627 82.7285 29.1547 83.2831 29.048L85.7311 28.584V27.928C85.7311 27.2347 85.3898 26.888 84.7071 26.888C84.3765 26.888 84.0245 26.9627 83.6511 27.112C83.2885 27.2613 82.8778 27.496 82.4191 27.816L82.2591 27.72L82.0191 26.312C82.4778 26.024 82.9685 25.8053 83.4911 25.656C84.0138 25.496 84.5365 25.416 85.0591 25.416ZM84.0191 30.024C83.8485 30.0667 83.7205 30.1413 83.6351 30.248C83.5605 30.344 83.5231 30.4933 83.5231 30.696C83.5231 30.9733 83.5978 31.192 83.7471 31.352C83.8965 31.5013 84.1045 31.576 84.3711 31.576C84.7871 31.576 85.2245 31.3307 85.6831 30.84L85.7151 29.656L84.0191 30.024ZM94.5275 29.16C95.5088 29.4053 95.9995 29.976 95.9995 30.872C95.9995 31.6293 95.6955 32.184 95.0875 32.536C94.4795 32.888 93.5782 33.064 92.3835 33.064C91.8182 33.064 90.9275 33.0427 89.7115 33L89.8235 29.928L89.7435 25.56H93.0715C93.9248 25.56 94.5808 25.72 95.0395 26.04C95.4982 26.36 95.7275 26.824 95.7275 27.432C95.7275 27.8053 95.6208 28.1467 95.4075 28.456C95.2048 28.7547 94.9115 28.9893 94.5275 29.16ZM92.2715 26.808C92.0368 26.808 91.8502 26.8133 91.7115 26.824L91.6795 28.68L92.8955 28.728C93.4928 28.568 93.7915 28.2267 93.7915 27.704C93.7915 27.384 93.6742 27.1547 93.4395 27.016C93.2155 26.8773 92.8262 26.808 92.2715 26.808ZM92.6555 31.832C93.1035 31.832 93.4502 31.7467 93.6955 31.576C93.9408 31.3947 94.0635 31.1333 94.0635 30.792C94.0635 30.5467 93.9888 30.3547 93.8395 30.216C93.6902 30.0667 93.4502 29.96 93.1195 29.896L91.6475 29.912L91.6955 31.768C92.0048 31.8107 92.3248 31.832 92.6555 31.832ZM97.4946 29.928L97.4306 25.704L99.5266 25.528L99.4466 29.72L99.5106 33H97.3986L97.4946 29.928ZM101.575 28.92C102.172 29.8587 103.041 31.1013 104.183 32.648V32.872C103.809 32.9573 103.409 33.0213 102.983 33.064C102.567 33.1173 102.311 33.1493 102.215 33.16L101.991 33.064C101.031 31.6987 100.215 30.3813 99.5426 29.112V28.968L101.431 26.328L101.815 25.56H104.023L101.575 28.92ZM107.934 25.416C108.755 25.416 109.395 25.6027 109.854 25.976C110.323 26.3387 110.558 26.8507 110.558 27.512C110.558 27.704 110.526 28.312 110.462 29.336C110.451 29.6347 110.435 29.944 110.414 30.264C110.393 30.5733 110.382 30.84 110.382 31.064C110.382 31.2453 110.409 31.3733 110.462 31.448C110.515 31.512 110.611 31.544 110.75 31.544C110.857 31.544 110.995 31.5227 111.166 31.48L111.326 31.608L111.134 32.728C110.793 32.952 110.403 33.0853 109.966 33.128C109.646 33.096 109.379 32.984 109.166 32.792C108.953 32.5893 108.809 32.312 108.734 31.96H108.622C108.089 32.5253 107.539 32.92 106.974 33.144C106.206 33.1333 105.603 32.9307 105.166 32.536C104.729 32.1413 104.51 31.6027 104.51 30.92C104.51 30.3867 104.643 29.9707 104.91 29.672C105.187 29.3627 105.603 29.1547 106.158 29.048L108.606 28.584V27.928C108.606 27.2347 108.265 26.888 107.582 26.888C107.251 26.888 106.899 26.9627 106.526 27.112C106.163 27.2613 105.753 27.496 105.294 27.816L105.134 27.72L104.894 26.312C105.353 26.024 105.843 25.8053 106.366 25.656C106.889 25.496 107.411 25.416 107.934 25.416ZM106.894 30.024C106.723 30.0667 106.595 30.1413 106.51 30.248C106.435 30.344 106.398 30.4933 106.398 30.696C106.398 30.9733 106.473 31.192 106.622 31.352C106.771 31.5013 106.979 31.576 107.246 31.576C107.662 31.576 108.099 31.3307 108.558 30.84L108.59 29.656L106.894 30.024Z" fill="white"/>
<path d="M29.3553 23.9785C26.944 23.9785 24.9823 25.9402 24.9823 28.3515C24.9823 30.7628 26.944 32.7245 29.3553 32.7245C31.767 32.7245 33.7283 30.7628 33.7283 28.3515C33.7283 25.9402 31.7666 23.9785 29.3553 23.9785ZM29.3553 30.538C28.1494 30.538 27.1688 29.5573 27.1688 28.3515C27.1688 27.1456 28.1494 26.165 29.3553 26.165C30.5611 26.165 31.5418 27.1456 31.5418 28.3515C31.5418 29.5574 30.5611 30.538 29.3553 30.538Z" fill="white"/>
<path d="M14.4143 23.9785C12.003 23.9785 10.0413 25.9402 10.0413 28.3515C10.0413 30.7628 12.003 32.7245 14.4143 32.7245C16.8256 32.7245 18.7873 30.7628 18.7873 28.3515C18.7873 25.9402 16.8256 23.9785 14.4143 23.9785ZM14.4143 30.538C13.2084 30.538 12.2278 29.5573 12.2278 28.3515C12.2278 27.1456 13.2084 26.165 14.4143 26.165C15.6198 26.165 16.6008 27.1456 16.6008 28.3515C16.6008 29.5574 15.6201 30.538 14.4143 30.538Z" fill="white"/>
<path d="M32.3001 11.4616C32.1143 11.0924 31.7364 10.8596 31.3231 10.8596H25.5653V13.0461H30.6489L33.6258 18.9671L35.5798 17.9846L32.3001 11.4616Z" fill="white"/>
<path d="M26.0756 27.2947H17.8033V29.4812H26.0756V27.2947Z" fill="white"/>
<path d="M11.1345 27.2947H7.34464C6.74078 27.2947 6.25143 27.7841 6.25143 28.3879C6.25143 28.9918 6.74084 29.4811 7.34464 29.4811H11.1346C11.7384 29.4811 12.2278 28.9917 12.2278 28.3879C12.2278 27.7841 11.7384 27.2947 11.1345 27.2947Z" fill="white"/>
<path d="M37.6166 20.6113L35.4662 17.8417C35.2596 17.575 34.9407 17.419 34.6029 17.419H26.6586V9.76628C26.6586 9.16242 26.1692 8.67307 25.5654 8.67307H7.34464C6.74078 8.67307 6.25143 9.16248 6.25143 9.76628C6.25143 10.3701 6.74084 10.8595 7.34464 10.8595H24.4721V18.5122C24.4721 19.1161 24.9616 19.6054 25.5653 19.6054H34.0675L35.6597 21.6563V27.2946H32.635C32.0311 27.2946 31.5418 27.784 31.5418 28.3878C31.5418 28.9917 32.0312 29.481 32.635 29.481H36.7529C37.3567 29.481 37.8461 28.9916 37.8462 28.3878V21.2818C37.8462 21.0391 37.7652 20.803 37.6166 20.6113Z" fill="white"/>
<path d="M11.0617 21.7556H6.0327C5.42884 21.7556 4.93949 22.245 4.93949 22.8488C4.93949 23.4527 5.42891 23.942 6.0327 23.942H11.0616C11.6655 23.942 12.1548 23.4526 12.1548 22.8488C12.1549 22.245 11.6655 21.7556 11.0617 21.7556Z" fill="white"/>
<path d="M13.5761 17.4554H4.24706C3.64327 17.4554 3.15385 17.9449 3.15385 18.5487C3.15385 19.1526 3.64327 19.6419 4.24706 19.6419H13.5761C14.18 19.6419 14.6693 19.1525 14.6693 18.5487C14.6693 17.9449 14.18 17.4554 13.5761 17.4554Z" fill="white"/>
<path d="M15.3617 13.1554H6.0327C5.42884 13.1554 4.93949 13.6448 4.93949 14.2486C4.93949 14.8524 5.42891 15.3418 6.0327 15.3418H15.3617C15.9656 15.3418 16.455 14.8524 16.455 14.2486C16.455 13.6448 15.9656 13.1554 15.3617 13.1554Z" fill="white"/>
</svg>
