<svg width="142" height="41" viewBox="0 0 142 41" fill="none" xmlns="http://www.w3.org/2000/svg">
<path d="M61.296 10.736L61.376 14H59.216L59.312 10.928L59.232 5.376H55.52L55.44 10.736L55.52 14H53.36L53.456 10.928L53.36 3.696H61.408L61.296 10.736ZM67.585 6.464C68.513 6.464 69.2277 6.77867 69.729 7.408C70.2303 8.03733 70.481 8.928 70.481 10.08C70.481 11.3813 70.1557 12.3893 69.505 13.104C68.865 13.808 67.9583 14.16 66.785 14.16C66.4437 14.16 66.0863 14.128 65.713 14.064L65.761 16.96H63.649L63.761 10.928L63.665 6.704L65.697 6.528L65.681 7.616H65.793C66.0917 7.328 66.3797 7.09867 66.657 6.928C66.9343 6.74667 67.2437 6.592 67.585 6.464ZM66.801 12.768C67.3557 12.768 67.777 12.5707 68.065 12.176C68.353 11.7813 68.497 11.2 68.497 10.432C68.497 9.68533 68.3743 9.12533 68.129 8.752C67.8943 8.368 67.5423 8.176 67.073 8.176C66.6143 8.176 66.1503 8.40533 65.681 8.864L65.665 10.72L65.697 12.528C66.081 12.688 66.449 12.768 66.801 12.768ZM74.9855 6.416C76.0735 6.416 76.9055 6.736 77.4815 7.376C78.0575 8.016 78.3455 8.93867 78.3455 10.144C78.3455 11.4453 78.0362 12.4427 77.4175 13.136C76.7988 13.8187 75.9082 14.16 74.7455 14.16C73.6575 14.16 72.8255 13.84 72.2495 13.2C71.6735 12.56 71.3855 11.6373 71.3855 10.432C71.3855 9.13067 71.6948 8.13867 72.3135 7.456C72.9322 6.76267 73.8228 6.416 74.9855 6.416ZM74.8415 7.856C74.3295 7.856 73.9562 8.02667 73.7215 8.368C73.4975 8.70933 73.3855 9.25867 73.3855 10.016C73.3855 10.9973 73.5028 11.696 73.7375 12.112C73.9722 12.528 74.3562 12.736 74.8895 12.736C75.4015 12.736 75.7695 12.5707 75.9935 12.24C76.2282 11.8987 76.3455 11.344 76.3455 10.576C76.3455 9.60533 76.2228 8.912 75.9775 8.496C75.7428 8.06933 75.3642 7.856 74.8415 7.856ZM85.4849 10.72L85.5809 14H83.4689L83.5489 10.976H83.4209C82.9515 11.36 82.4449 11.648 81.9009 11.84C81.0049 11.84 80.3542 11.6587 79.9489 11.296C79.5435 10.9333 79.3302 10.3573 79.3089 9.568L79.2609 6.56H81.3569L81.3089 9.136C81.2982 9.86133 81.6129 10.224 82.2529 10.224C82.6902 10.224 83.1169 10.0533 83.5329 9.712L83.4849 6.56H85.5969L85.4849 10.72ZM94.2273 10.72L94.3073 14H92.1953L92.2913 11.088L90.8993 11.072L89.6033 11.104L89.6833 14H87.5553L87.6673 10.928L87.5872 6.56H89.6833L89.6193 9.504L90.9953 9.52H92.2753L92.2273 6.56H94.3073L94.2273 10.72ZM105.106 10.72L105.202 14H103.074L103.186 10.928L103.106 6.704L105.202 6.528L105.106 10.72ZM99.8736 9.28C100.663 9.28 101.266 9.456 101.682 9.808C102.108 10.1493 102.322 10.6507 102.322 11.312C102.322 12.1547 102.023 12.816 101.426 13.296C100.828 13.7653 100.002 14 98.9456 14H96.2896L96.4016 10.928L96.3216 6.56H98.4176L98.3536 9.28H99.8736ZM99.3936 12.72C99.6816 12.656 99.9056 12.5227 100.066 12.32C100.226 12.1067 100.306 11.8507 100.306 11.552C100.306 11.232 100.215 10.9813 100.034 10.8C99.8523 10.608 99.6016 10.5173 99.2816 10.528L98.3216 10.544V10.72L98.3856 12.672L99.3936 12.72ZM112.906 10.544L108.586 10.576C108.682 11.9093 109.36 12.576 110.618 12.576C111.28 12.576 112.016 12.3893 112.826 12.016L113.002 12.128L112.682 13.712C111.872 14.0107 111.109 14.16 110.394 14.16C109.221 14.16 108.298 13.8187 107.626 13.136C106.965 12.4533 106.634 11.5093 106.634 10.304C106.634 9.10933 106.96 8.16533 107.61 7.472C108.261 6.768 109.141 6.416 110.25 6.416C111.2 6.416 111.93 6.67733 112.442 7.2C112.965 7.712 113.226 8.432 113.226 9.36C113.226 9.60533 113.2 9.91467 113.146 10.288L112.906 10.544ZM111.37 9.12C111.37 8.69333 111.274 8.37333 111.082 8.16C110.89 7.936 110.608 7.824 110.234 7.824C109.818 7.824 109.472 7.96267 109.194 8.24C108.917 8.50667 108.73 8.896 108.634 9.408L111.338 9.344L111.37 9.12ZM53.488 25.576H55.6L55.92 26.664L56.976 29.88H57.088L58.24 26.696L58.592 25.576H60.672L61.328 33H59.648L59.568 30.696L59.36 28.264H59.232L57.632 32.248H56.224L54.8 28.264H54.688L54.448 30.472L54.272 33H52.688L53.488 25.576ZM65.9341 25.416C66.7555 25.416 67.3955 25.6027 67.8541 25.976C68.3235 26.3387 68.5581 26.8507 68.5581 27.512C68.5581 27.704 68.5261 28.312 68.4621 29.336C68.4515 29.6347 68.4355 29.944 68.4141 30.264C68.3928 30.5733 68.3821 30.84 68.3821 31.064C68.3821 31.2453 68.4088 31.3733 68.4621 31.448C68.5155 31.512 68.6115 31.544 68.7501 31.544C68.8568 31.544 68.9955 31.5227 69.1661 31.48L69.3261 31.608L69.1341 32.728C68.7928 32.952 68.4035 33.0853 67.9661 33.128C67.6461 33.096 67.3795 32.984 67.1661 32.792C66.9528 32.5893 66.8088 32.312 66.7341 31.96H66.6221C66.0888 32.5253 65.5395 32.92 64.9741 33.144C64.2061 33.1333 63.6035 32.9307 63.1661 32.536C62.7288 32.1413 62.5101 31.6027 62.5101 30.92C62.5101 30.3867 62.6435 29.9707 62.9101 29.672C63.1875 29.3627 63.6035 29.1547 64.1581 29.048L66.6061 28.584V27.928C66.6061 27.2347 66.2648 26.888 65.5821 26.888C65.2515 26.888 64.8995 26.9627 64.5261 27.112C64.1635 27.2613 63.7528 27.496 63.2941 27.816L63.1341 27.72L62.8941 26.312C63.3528 26.024 63.8435 25.8053 64.3661 25.656C64.8888 25.496 65.4115 25.416 65.9341 25.416ZM64.8941 30.024C64.7235 30.0667 64.5955 30.1413 64.5101 30.248C64.4355 30.344 64.3981 30.4933 64.3981 30.696C64.3981 30.9733 64.4728 31.192 64.6221 31.352C64.7715 31.5013 64.9795 31.576 65.2461 31.576C65.6621 31.576 66.0995 31.3307 66.5581 30.84L66.5901 29.656L64.8941 30.024ZM75.8509 25.704L75.7229 27.08L74.2509 27.032H73.7069L73.6429 29.72L73.7389 33H71.6269L71.7229 29.928L71.6749 27.032H71.0989L69.6269 27.08L69.5149 26.936L69.6109 25.56H75.7229L75.8509 25.704ZM82.3908 29.544L78.0707 29.576C78.1668 30.9093 78.8441 31.576 80.1028 31.576C80.7641 31.576 81.5001 31.3893 82.3108 31.016L82.4868 31.128L82.1668 32.712C81.3561 33.0107 80.5934 33.16 79.8788 33.16C78.7054 33.16 77.7828 32.8187 77.1108 32.136C76.4494 31.4533 76.1188 30.5093 76.1188 29.304C76.1188 28.1093 76.4441 27.1653 77.0948 26.472C77.7454 25.768 78.6254 25.416 79.7348 25.416C80.6841 25.416 81.4148 25.6773 81.9268 26.2C82.4494 26.712 82.7108 27.432 82.7108 28.36C82.7108 28.6053 82.6841 28.9147 82.6308 29.288L82.3908 29.544ZM80.8548 28.12C80.8548 27.6933 80.7588 27.3733 80.5668 27.16C80.3748 26.936 80.0921 26.824 79.7188 26.824C79.3028 26.824 78.9561 26.9627 78.6788 27.24C78.4014 27.5067 78.2148 27.896 78.1188 28.408L80.8228 28.344L80.8548 28.12ZM88.21 25.464C89.138 25.464 89.8527 25.7787 90.354 26.408C90.8553 27.0373 91.106 27.928 91.106 29.08C91.106 30.3813 90.7807 31.3893 90.13 32.104C89.49 32.808 88.5833 33.16 87.41 33.16C87.0687 33.16 86.7113 33.128 86.338 33.064L86.386 35.96H84.274L84.386 29.928L84.29 25.704L86.322 25.528L86.306 26.616H86.418C86.7167 26.328 87.0047 26.0987 87.282 25.928C87.5593 25.7467 87.8687 25.592 88.21 25.464ZM87.426 31.768C87.9807 31.768 88.402 31.5707 88.69 31.176C88.978 30.7813 89.122 30.2 89.122 29.432C89.122 28.6853 88.9993 28.1253 88.754 27.752C88.5193 27.368 88.1673 27.176 87.698 27.176C87.2393 27.176 86.7753 27.4053 86.306 27.864L86.29 29.72L86.322 31.528C86.706 31.688 87.074 31.768 87.426 31.768ZM92.6048 29.928L92.4928 25.608L94.6048 25.512L94.5248 30.12H94.6528L97.1168 25.56H99.2288L99.1168 29.672L99.2288 33H97.1168L97.2128 30.072V28.312H97.1008L94.5568 33H92.4928L92.6048 29.928ZM104.106 25.416C104.927 25.416 105.567 25.6027 106.026 25.976C106.495 26.3387 106.73 26.8507 106.73 27.512C106.73 27.704 106.698 28.312 106.634 29.336C106.623 29.6347 106.607 29.944 106.586 30.264C106.565 30.5733 106.554 30.84 106.554 31.064C106.554 31.2453 106.581 31.3733 106.634 31.448C106.687 31.512 106.783 31.544 106.922 31.544C107.029 31.544 107.167 31.5227 107.338 31.48L107.498 31.608L107.306 32.728C106.965 32.952 106.575 33.0853 106.138 33.128C105.818 33.096 105.551 32.984 105.338 32.792C105.125 32.5893 104.981 32.312 104.906 31.96H104.794C104.261 32.5253 103.711 32.92 103.146 33.144C102.378 33.1333 101.775 32.9307 101.338 32.536C100.901 32.1413 100.682 31.6027 100.682 30.92C100.682 30.3867 100.815 29.9707 101.082 29.672C101.359 29.3627 101.775 29.1547 102.33 29.048L104.778 28.584V27.928C104.778 27.2347 104.437 26.888 103.754 26.888C103.423 26.888 103.071 26.9627 102.698 27.112C102.335 27.2613 101.925 27.496 101.466 27.816L101.306 27.72L101.066 26.312C101.525 26.024 102.015 25.8053 102.538 25.656C103.061 25.496 103.583 25.416 104.106 25.416ZM103.066 30.024C102.895 30.0667 102.767 30.1413 102.682 30.248C102.607 30.344 102.57 30.4933 102.57 30.696C102.57 30.9733 102.645 31.192 102.794 31.352C102.943 31.5013 103.151 31.576 103.418 31.576C103.834 31.576 104.271 31.3307 104.73 30.84L104.762 29.656L103.066 30.024ZM114.785 29.72L114.865 33H112.753L112.849 29.928L112.801 26.968H111.457L111.409 27.384C111.227 28.8987 111.03 30.056 110.817 30.856C110.614 31.656 110.358 32.232 110.049 32.584C109.739 32.9253 109.323 33.1227 108.801 33.176H108.321L108.017 31.544C108.401 31.4267 108.699 31.224 108.913 30.936C109.126 30.648 109.302 30.2107 109.441 29.624C109.579 29.0267 109.707 28.1627 109.825 27.032L109.985 25.592L109.969 25.56H114.881L114.785 29.72ZM125.653 29.72L125.749 33H123.621L123.733 29.928L123.653 25.704L125.749 25.528L125.653 29.72ZM120.421 28.28C121.21 28.28 121.813 28.456 122.229 28.808C122.655 29.1493 122.869 29.6507 122.869 30.312C122.869 31.1547 122.57 31.816 121.973 32.296C121.375 32.7653 120.549 33 119.493 33H116.837L116.949 29.928L116.868 25.56H118.965L118.901 28.28H120.421ZM119.941 31.72C120.229 31.656 120.453 31.5227 120.613 31.32C120.773 31.1067 120.853 30.8507 120.853 30.552C120.853 30.232 120.762 29.9813 120.581 29.8C120.399 29.608 120.149 29.5173 119.829 29.528L118.869 29.544V29.72L118.933 31.672L119.941 31.72Z" fill="white"/>
<g clip-path="url(#clip0_1_86)">
<path d="M36.8298 15.4181H29.5562C29.5569 15.4117 29.5579 15.4054 29.5586 15.3991C30.405 14.6708 31.0815 13.8061 31.5729 12.8236C31.7304 12.5085 31.7136 12.1343 31.5284 11.8347C31.3432 11.535 31.016 11.3526 30.6638 11.3526H29.0949C28.7545 10.3896 28.2576 9.50036 27.6109 8.69742C27.6938 7.58516 27.5607 6.4969 27.2137 5.45599C27.1023 5.12181 26.8258 4.86914 26.483 4.78823C26.1401 4.70726 25.7799 4.80971 25.5308 5.05872L24.4191 6.17037C23.5006 5.73129 22.5227 5.45416 21.4992 5.34311C20.7321 4.43955 19.848 3.72436 18.9218 3.26116C18.6067 3.10362 18.2326 3.12043 17.9328 3.30561C17.6333 3.49079 17.4509 3.81793 17.4509 4.17021V5.80684C16.4879 6.14719 15.5986 6.6442 14.7957 7.29082C13.6836 7.20795 12.5951 7.3411 11.5544 7.68809C11.2202 7.79948 10.9675 8.07601 10.8866 8.4188C10.8057 8.76159 10.908 9.12192 11.1571 9.37094L12.2686 10.4824C11.8292 11.4016 11.552 12.3802 11.4411 13.4045C10.7601 13.9905 10.1893 14.665 9.73623 15.4182H4.17022C3.6089 15.4182 3.15384 15.8732 3.15384 16.4345V20.5001C3.15384 21.0614 3.6089 21.5164 4.17022 21.5164H5.25435V36.8298C5.25435 37.3911 5.70942 37.8462 6.27073 37.8462H10.3362C10.8975 37.8462 11.3526 37.3911 11.3526 36.8298V33.3847L20.5 29.7258L29.6474 33.3847V36.8298C29.6474 37.3911 30.1024 37.8461 30.6638 37.8461H34.7293C35.2906 37.8461 35.7456 37.3911 35.7456 36.8298V21.5164H36.8298C37.3911 21.5164 37.8461 21.0613 37.8461 20.5V16.4345C37.8461 15.8732 37.3911 15.4181 36.8298 15.4181ZM13.0399 14.7226C13.2717 14.5431 13.4147 14.2723 13.4322 13.9796C13.5 12.8451 13.8237 11.7792 14.3944 10.8115C14.6298 10.4123 14.5652 9.90433 14.2376 9.57658L13.9639 9.30291C14.3037 9.29247 14.6479 9.30921 14.9952 9.35318C15.286 9.39004 15.5787 9.29952 15.798 9.10471C16.6472 8.35029 17.631 7.82455 18.722 7.542C19.1704 7.426 19.4836 7.02141 19.4836 6.55822V6.15607C19.7255 6.39404 19.9585 6.65687 20.179 6.94173C20.3585 7.17353 20.6293 7.3165 20.922 7.33398C22.0564 7.40174 23.1223 7.72549 24.0901 8.29615C24.4894 8.53155 24.9973 8.46704 25.325 8.13936L25.5988 7.86562C25.6092 8.20542 25.5925 8.54971 25.5485 8.89697C25.5117 9.18785 25.6022 9.4805 25.797 9.69977C26.5514 10.5491 27.0772 11.5328 27.3597 12.6238C27.4758 13.0722 27.8804 13.3854 28.3436 13.3854H28.7272C28.4937 13.6338 28.2377 13.8659 27.9602 14.0808C27.7284 14.2603 27.5854 14.5311 27.5679 14.8238C27.556 15.023 27.5354 15.2214 27.5072 15.4182H23.3743C23.4871 15.1 23.5491 14.7581 23.5491 14.4018C23.5491 12.7205 22.1813 11.3527 20.5 11.3527C18.8187 11.3527 17.4509 12.7205 17.4509 14.4018C17.4509 14.7581 17.5129 15.1 17.6257 15.4182H12.2733C12.5069 15.1698 12.7624 14.9375 13.0399 14.7226ZM21.5164 14.4017C21.5164 14.9622 21.0604 15.4181 20.5 15.4181C19.9396 15.4181 19.4836 14.9622 19.4836 14.4017C19.4836 13.8413 19.9396 13.3854 20.5 13.3854C21.0604 13.3854 21.5164 13.8413 21.5164 14.4017ZM9.31985 35.8134H7.2871V21.5164H9.31985C9.31985 21.5094 9.31992 31.5516 9.31985 35.8134ZM11.3526 31.1953V26.0667L17.7633 28.631L11.3526 31.1953ZM29.6474 31.1953L23.2367 28.631L29.6474 26.0667V31.1953ZM29.6474 23.8774L20.5 27.5364L11.3526 23.8774V21.5164H29.6474V23.8774ZM33.7129 35.8134H31.6801C31.6801 34.0105 31.6801 23.6905 31.6801 21.5164H33.7129V35.8134ZM35.8134 19.4836H5.18659V17.4509H35.8134V19.4836Z" fill="white"/>
</g>
<defs>
<clipPath id="clip0_1_86">
<rect width="34.6923" height="34.6923" fill="white" transform="translate(3.15384 3.15384)"/>
</clipPath>
</defs>
</svg>
